<svg width="490" height="369" viewBox="0 0 490 369" fill="none" xmlns="http://www.w3.org/2000/svg">
<path d="M114.4 353.35C132.295 353.35 146.802 338.843 146.802 320.948C146.802 303.052 132.295 288.545 114.4 288.545C96.5043 288.545 81.9973 303.052 81.9973 320.948C81.9973 338.843 96.5043 353.35 114.4 353.35Z" stroke="#434D48" stroke-width="1.15455" stroke-miterlimit="10"/>
<path d="M81.9972 325.001H73.8981V316.901H82.2512" stroke="#434D48" stroke-width="1.15455" stroke-miterlimit="10"/>
<path d="M73.8981 325V329.047H17.1984V312.849H73.8981V316.901" stroke="#434D48" stroke-width="1.15455" stroke-miterlimit="10"/>
<path d="M21.2509 329.047V316.901H69.8514V329.047" stroke="#434D48" stroke-width="0.288636" stroke-miterlimit="10"/>
<path d="M25.2976 325H65.7991" stroke="#434D48" stroke-width="0.288636" stroke-miterlimit="10"/>
<path d="M114.4 345.245C127.819 345.245 138.697 334.367 138.697 320.948C138.697 307.529 127.819 296.65 114.4 296.65C100.98 296.65 90.1022 307.529 90.1022 320.948C90.1022 334.367 100.98 345.245 114.4 345.245Z" stroke="#434D48" stroke-width="0.288636" stroke-miterlimit="10"/>
<path d="M487 211.601H163V365.501H487V211.601Z" stroke="#434D48" stroke-width="1.15455" stroke-miterlimit="10"/>
<path d="M171.099 211.601V272.347" stroke="#434D48" stroke-width="0.288636" stroke-miterlimit="10"/>
<path d="M179.198 211.601V272.347" stroke="#434D48" stroke-width="1.15455" stroke-miterlimit="10"/>
<path d="M187.297 211.601V272.347" stroke="#434D48" stroke-width="0.288636" stroke-miterlimit="10"/>
<path d="M195.402 211.601V272.347" stroke="#434D48" stroke-width="0.288636" stroke-miterlimit="10"/>
<path d="M203.501 211.601V272.347" stroke="#434D48" stroke-width="0.288636" stroke-miterlimit="10"/>
<path d="M211.601 211.601V272.347" stroke="#434D48" stroke-width="1.15455" stroke-miterlimit="10"/>
<path d="M219.7 211.601V272.347" stroke="#434D48" stroke-width="0.288636" stroke-miterlimit="10"/>
<path d="M227.799 211.601V272.347" stroke="#434D48" stroke-width="0.288636" stroke-miterlimit="10"/>
<path d="M235.898 211.601V272.347" stroke="#434D48" stroke-width="0.288636" stroke-miterlimit="10"/>
<path d="M244.003 211.601V272.347" stroke="#434D48" stroke-width="1.15455" stroke-miterlimit="10"/>
<path d="M252.102 211.601V272.347" stroke="#434D48" stroke-width="0.288636" stroke-miterlimit="10"/>
<path d="M260.201 211.601V272.347" stroke="#434D48" stroke-width="0.288636" stroke-miterlimit="10"/>
<path d="M268.3 211.601V272.347" stroke="#434D48" stroke-width="0.288636" stroke-miterlimit="10"/>
<path d="M179.198 365.496V276.399" stroke="#434D48" stroke-width="1.15455" stroke-miterlimit="10"/>
<path d="M276.399 227.799H487" stroke="#434D48" stroke-width="1.15455" stroke-miterlimit="10"/>
<path d="M276.399 243.997H487" stroke="#434D48" stroke-width="0.288636" stroke-miterlimit="10"/>
<path d="M276.399 260.201H487" stroke="#434D48" stroke-width="0.288636" stroke-miterlimit="10"/>
<path d="M268.3 276.399H487" stroke="#434D48" stroke-width="0.288636" stroke-miterlimit="10"/>
<path d="M163 292.598H487" stroke="#434D48" stroke-width="0.288636" stroke-miterlimit="10"/>
<path d="M163 308.796H487" stroke="#434D48" stroke-width="0.288636" stroke-miterlimit="10"/>
<path d="M163 325H487" stroke="#434D48" stroke-width="0.288636" stroke-miterlimit="10"/>
<path d="M163 341.198H487" stroke="#434D48" stroke-width="0.288636" stroke-miterlimit="10"/>
<path d="M163 357.396H487" stroke="#434D48" stroke-width="0.288636" stroke-miterlimit="10"/>
<path d="M211.595 365.496L211.601 276.399" stroke="#434D48" stroke-width="0.288636" stroke-miterlimit="10"/>
<path d="M243.997 365.496L244.003 276.399" stroke="#434D48" stroke-width="0.288636" stroke-miterlimit="10"/>
<path d="M276.399 227.799V365.496" stroke="#434D48" stroke-width="0.288636" stroke-miterlimit="10"/>
<path d="M308.802 211.601V365.496" stroke="#434D48" stroke-width="0.288636" stroke-miterlimit="10"/>
<path d="M341.198 211.601V365.496" stroke="#434D48" stroke-width="0.288636" stroke-miterlimit="10"/>
<path d="M373.601 211.601V365.496" stroke="#434D48" stroke-width="0.288636" stroke-miterlimit="10"/>
<path d="M406.003 211.601V365.496" stroke="#434D48" stroke-width="0.288636" stroke-miterlimit="10"/>
<path d="M438.399 211.601V365.496" stroke="#434D48" stroke-width="0.288636" stroke-miterlimit="10"/>
<path d="M470.802 211.601V365.496" stroke="#434D48" stroke-width="0.288636" stroke-miterlimit="10"/>
<path d="M163 219.7H272.353" stroke="#434D48" stroke-width="0.288636" stroke-miterlimit="10"/>
<path d="M163 227.799H272.353" stroke="#434D48" stroke-width="1.15455" stroke-miterlimit="10"/>
<path d="M163 235.898H272.353" stroke="#434D48" stroke-width="0.288636" stroke-miterlimit="10"/>
<path d="M163 243.997H272.353" stroke="#434D48" stroke-width="1.15455" stroke-miterlimit="10"/>
<path d="M163 252.096H272.353" stroke="#434D48" stroke-width="0.288636" stroke-miterlimit="10"/>
<path d="M163 260.201H272.353" stroke="#434D48" stroke-width="1.15455" stroke-miterlimit="10"/>
<path d="M163 268.3H272.353" stroke="#434D48" stroke-width="0.288636" stroke-miterlimit="10"/>
<path d="M470.761 57.6997V49.6006L389.764 49.6006V57.6997L470.761 57.6997Z" stroke="#434D48" stroke-width="1.15455" stroke-miterlimit="10"/>
<path d="M389.758 51.875L381.654 49.6006L373.554 53.6473L381.659 57.6997L389.758 55.4253" stroke="#434D48" stroke-width="1.15455" stroke-miterlimit="10"/>
<path d="M373.554 53.6475H381.659" stroke="#434D48" stroke-width="0.288636" stroke-miterlimit="10"/>
<path d="M382.981 54.9753C383.715 54.9753 384.309 54.3808 384.309 53.6475C384.309 52.9143 383.715 52.3198 382.981 52.3198C382.248 52.3198 381.654 52.9143 381.654 53.6475C381.654 54.3808 382.248 54.9753 382.981 54.9753Z" stroke="#434D48" stroke-width="0.288636" stroke-miterlimit="10"/>
<path d="M405.957 59.7258V47.5742" stroke="#434D48" stroke-width="1.15455" stroke-miterlimit="10"/>
<path d="M393.851 49.6006V57.6997" stroke="#434D48" stroke-width="0.288636" stroke-miterlimit="10"/>
<path d="M397.858 49.6006V57.6997" stroke="#434D48" stroke-width="0.288636" stroke-miterlimit="10"/>
<path d="M401.864 49.6006V57.6997" stroke="#434D48" stroke-width="0.288636" stroke-miterlimit="10"/>
<path d="M376.55 73.8979H470.802V195.396H376.55C374.899 195.396 373.554 194.057 373.554 192.4V76.8881C373.554 75.2371 374.894 73.8921 376.55 73.8921V73.8979Z" stroke="#434D48" stroke-width="1.15455" stroke-miterlimit="10"/>
<path d="M389.799 73.8979V195.397" stroke="#434D48" stroke-width="1.15455" stroke-miterlimit="10"/>
<path d="M462.697 114.399H397.898V146.802H462.697V114.399Z" stroke="#434D48" stroke-width="1.15455" stroke-miterlimit="10"/>
<path d="M458.65 118.446H401.95V142.744H458.65V118.446Z" stroke="#434D48" stroke-width="0.288636" stroke-miterlimit="10"/>
<path d="M373.554 90.0962H389.758" stroke="#434D48" stroke-width="1.15455" stroke-miterlimit="10"/>
<path d="M373.554 94.1484H389.758" stroke="#434D48" stroke-width="1.15455" stroke-miterlimit="10"/>
<path d="M389.758 106.3H373.554" stroke="#434D48" stroke-width="1.15455" stroke-miterlimit="10"/>
<path d="M389.758 98.2012H373.554" stroke="#434D48" stroke-width="1.15455" stroke-miterlimit="10"/>
<path d="M373.554 179.198H389.758" stroke="#434D48" stroke-width="1.15455" stroke-miterlimit="10"/>
<path d="M373.554 175.146H389.758" stroke="#434D48" stroke-width="1.15455" stroke-miterlimit="10"/>
<path d="M373.554 171.099H389.758" stroke="#434D48" stroke-width="1.15455" stroke-miterlimit="10"/>
<path d="M373.554 163H389.758" stroke="#434D48" stroke-width="1.15455" stroke-miterlimit="10"/>
<path d="M385.746 122.499H377.561V146.796H385.746V122.499Z" stroke="#434D48" stroke-width="1.15455" stroke-miterlimit="10"/>
<path d="M385.752 126.551H377.584" stroke="#434D48" stroke-width="0.288636" stroke-miterlimit="10"/>
<path d="M385.752 130.598H377.584" stroke="#434D48" stroke-width="0.288636" stroke-miterlimit="10"/>
<path d="M385.752 134.65H377.584" stroke="#434D48" stroke-width="0.288636" stroke-miterlimit="10"/>
<path d="M385.752 138.697H377.584" stroke="#434D48" stroke-width="0.288636" stroke-miterlimit="10"/>
<path d="M385.752 142.749H377.584" stroke="#434D48" stroke-width="0.288636" stroke-miterlimit="10"/>
<path d="M357.402 25.2974V195.397H211.595V1H333.099L357.402 25.2974Z" stroke="#434D48" stroke-width="1.15455" stroke-miterlimit="10"/>
<path d="M211.601 90.0962H272.353" stroke="#434D48" stroke-width="0.288636" stroke-miterlimit="10"/>
<path d="M211.601 98.2012H272.353" stroke="#434D48" stroke-width="0.288636" stroke-miterlimit="10"/>
<path d="M211.601 106.3H272.353" stroke="#434D48" stroke-width="0.288636" stroke-miterlimit="10"/>
<path d="M211.601 114.399H272.353" stroke="#434D48" stroke-width="0.288636" stroke-miterlimit="10"/>
<path d="M211.601 122.499H272.353" stroke="#434D48" stroke-width="0.288636" stroke-miterlimit="10"/>
<path d="M211.601 130.598H272.353" stroke="#434D48" stroke-width="0.288636" stroke-miterlimit="10"/>
<path d="M211.601 138.697H272.353" stroke="#434D48" stroke-width="0.288636" stroke-miterlimit="10"/>
<path d="M211.601 146.796H272.353" stroke="#434D48" stroke-width="0.288636" stroke-miterlimit="10"/>
<path d="M211.601 154.901H272.353" stroke="#434D48" stroke-width="0.288636" stroke-miterlimit="10"/>
<path d="M211.601 163H272.353" stroke="#434D48" stroke-width="0.288636" stroke-miterlimit="10"/>
<path d="M211.601 171.099H272.353" stroke="#434D48" stroke-width="0.288636" stroke-miterlimit="10"/>
<path d="M211.601 179.198H272.353" stroke="#434D48" stroke-width="0.288636" stroke-miterlimit="10"/>
<path d="M211.601 187.297H272.353" stroke="#434D48" stroke-width="0.288636" stroke-miterlimit="10"/>
<path d="M320.237 179.198H276.399" stroke="#434D48" stroke-width="0.288636" stroke-miterlimit="10"/>
<path d="M341.204 163H276.399" stroke="#434D48" stroke-width="0.288636" stroke-miterlimit="10"/>
<path d="M341.204 146.796H276.399" stroke="#434D48" stroke-width="0.288636" stroke-miterlimit="10"/>
<path d="M341.204 130.598H276.399" stroke="#434D48" stroke-width="0.288636" stroke-miterlimit="10"/>
<path d="M341.204 114.399H276.399" stroke="#434D48" stroke-width="0.288636" stroke-miterlimit="10"/>
<path d="M341.204 98.2012H276.399" stroke="#434D48" stroke-width="0.288636" stroke-miterlimit="10"/>
<path d="M341.204 81.9971H227.799" stroke="#434D48" stroke-width="0.288636" stroke-miterlimit="10"/>
<path d="M341.204 65.7988H227.799" stroke="#434D48" stroke-width="0.288636" stroke-miterlimit="10"/>
<path d="M284.499 17.1982H260.201" stroke="#434D48" stroke-width="1.15455" stroke-miterlimit="10"/>
<path d="M292.598 33.3965H260.201" stroke="#434D48" stroke-width="1.15455" stroke-miterlimit="10"/>
<path d="M292.598 41.4956H260.201" stroke="#434D48" stroke-width="1.15455" stroke-miterlimit="10"/>
<path d="M292.598 49.6006H260.201" stroke="#434D48" stroke-width="1.15455" stroke-miterlimit="10"/>
<path d="M292.598 25.2974H260.201" stroke="#434D48" stroke-width="1.15455" stroke-miterlimit="10"/>
<path d="M333.099 1L357.397 25.2974" stroke="#434D48" stroke-width="1.15455" stroke-miterlimit="10"/>
<path d="M357.397 25.2974H333.099V1" stroke="#434D48" stroke-width="1.15455" stroke-miterlimit="10"/>
<path d="M219.7 86.0498V195.397" stroke="#434D48" stroke-width="0.288636" stroke-miterlimit="10"/>
<path d="M227.799 86.0498V195.397" stroke="#434D48" stroke-width="0.288636" stroke-miterlimit="10"/>
<path d="M235.898 86.0498V195.397" stroke="#434D48" stroke-width="0.288636" stroke-miterlimit="10"/>
<path d="M243.997 86.0498V195.397" stroke="#434D48" stroke-width="0.288636" stroke-miterlimit="10"/>
<path d="M252.102 86.0498V195.397" stroke="#434D48" stroke-width="0.288636" stroke-miterlimit="10"/>
<path d="M260.201 86.0498V195.397" stroke="#434D48" stroke-width="0.288636" stroke-miterlimit="10"/>
<path d="M268.3 86.0498V195.397" stroke="#434D48" stroke-width="0.288636" stroke-miterlimit="10"/>
<path d="M272.353 179.198H227.799" stroke="#434D48" stroke-width="1.15455" stroke-miterlimit="10"/>
<path d="M227.799 163H272.353" stroke="#434D48" stroke-width="1.15455" stroke-miterlimit="10"/>
<path d="M227.799 146.796H272.353" stroke="#434D48" stroke-width="1.15455" stroke-miterlimit="10"/>
<path d="M227.799 130.598H272.353" stroke="#434D48" stroke-width="1.15455" stroke-miterlimit="10"/>
<path d="M227.799 114.399H272.353" stroke="#434D48" stroke-width="1.15455" stroke-miterlimit="10"/>
<path d="M227.799 98.2012H272.353" stroke="#434D48" stroke-width="1.15455" stroke-miterlimit="10"/>
<path d="M252.096 17.1982H227.799V49.6006H252.096V17.1982Z" stroke="#434D48" stroke-width="1.15455" stroke-miterlimit="10"/>
<path d="M227.799 17.1982L252.102 49.6006" stroke="#434D48" stroke-width="0.288636" stroke-miterlimit="10"/>
<path d="M252.102 17.1982L227.799 49.6006" stroke="#434D48" stroke-width="0.288636" stroke-miterlimit="10"/>
<path d="M268.473 81.9971H8.92595C4.54857 81.9971 1 85.5456 1 89.923V268.473C1 272.851 4.54857 276.399 8.92595 276.399H268.473C272.851 276.399 276.399 272.851 276.399 268.473V89.923C276.399 85.5456 272.851 81.9971 268.473 81.9971Z" stroke="#434D48" stroke-width="1.15455" stroke-miterlimit="10"/>
<path d="M5.0524 268.306C5.0524 270.54 6.86504 272.353 9.09908 272.353H268.312C270.546 272.353 272.358 270.54 272.358 268.306V90.0906C272.358 87.8566 270.546 86.0439 268.312 86.0439H9.09331C6.85927 86.0439 5.04663 87.8566 5.04663 90.0906V268.3L5.0524 268.306Z" stroke="#434D48" stroke-width="1.15455" stroke-miterlimit="10"/>
<path d="M146.796 98.2012H17.1982V187.303H146.796V98.2012Z" stroke="#434D48" stroke-width="1.15455" stroke-miterlimit="10"/>
<path d="M195.402 98.2012H163V187.303H195.402V98.2012Z" stroke="#434D48" stroke-width="1.15455" stroke-miterlimit="10"/>
<path d="M98.2011 203.501H17.1982V260.201H98.2011V203.501Z" stroke="#434D48" stroke-width="1.15455" stroke-miterlimit="10"/>
<path d="M65.7988 203.501V260.201" stroke="#434D48" stroke-width="0.288636" stroke-miterlimit="10"/>
<path d="M49.6006 203.501V260.201" stroke="#434D48" stroke-width="0.288636" stroke-miterlimit="10"/>
<path d="M21.2507 207.548H45.5481" stroke="#434D48" stroke-width="0.288636" stroke-miterlimit="10"/>
<path d="M21.2507 211.601H37.449" stroke="#434D48" stroke-width="0.288636" stroke-miterlimit="10"/>
<path d="M21.2507 215.647H45.5481" stroke="#434D48" stroke-width="0.288636" stroke-miterlimit="10"/>
<path d="M21.2507 219.7H37.449" stroke="#434D48" stroke-width="0.288636" stroke-miterlimit="10"/>
<path d="M45.5481 223.746H21.2507V256.148H45.5481V223.746Z" stroke="#434D48" stroke-width="0.288636" stroke-miterlimit="10"/>
<path d="M49.6006 219.7H98.2012" stroke="#434D48" stroke-width="0.288636" stroke-miterlimit="10"/>
<path d="M73.898 219.7H65.7988V227.799H73.898V219.7Z" stroke="#434D48" stroke-width="0.288636" stroke-miterlimit="10"/>
<path d="M81.9971 219.7H73.8979V227.799H81.9971V219.7Z" stroke="#434D48" stroke-width="0.288636" stroke-miterlimit="10"/>
<path d="M90.0963 219.7H81.9972V227.799H90.0963V219.7Z" stroke="#434D48" stroke-width="0.288636" stroke-miterlimit="10"/>
<path d="M98.2012 219.7H90.1021V227.799H98.2012V219.7Z" stroke="#434D48" stroke-width="0.288636" stroke-miterlimit="10"/>
<path d="M73.898 227.799H65.7988V235.898H73.898V227.799Z" stroke="#434D48" stroke-width="0.288636" stroke-miterlimit="10"/>
<path d="M81.9971 227.799H73.8979V235.898H81.9971V227.799Z" stroke="#434D48" stroke-width="0.288636" stroke-miterlimit="10"/>
<path d="M90.0963 227.799H81.9972V235.898H90.0963V227.799Z" stroke="#434D48" stroke-width="0.288636" stroke-miterlimit="10"/>
<path d="M98.2012 227.799H90.1021V235.898H98.2012V227.799Z" stroke="#434D48" stroke-width="0.288636" stroke-miterlimit="10"/>
<path d="M73.898 235.898H65.7988V243.997H73.898V235.898Z" stroke="#434D48" stroke-width="0.288636" stroke-miterlimit="10"/>
<path d="M81.9971 235.898H73.8979V243.997H81.9971V235.898Z" stroke="#434D48" stroke-width="0.288636" stroke-miterlimit="10"/>
<path d="M90.0963 235.898H81.9972V243.997H90.0963V235.898Z" stroke="#434D48" stroke-width="0.288636" stroke-miterlimit="10"/>
<path d="M98.2012 235.898H90.1021V243.997H98.2012V235.898Z" stroke="#434D48" stroke-width="0.288636" stroke-miterlimit="10"/>
<path d="M73.898 243.997H65.7988V252.096H73.898V243.997Z" stroke="#434D48" stroke-width="0.288636" stroke-miterlimit="10"/>
<path d="M81.9971 243.997H73.8979V252.096H81.9971V243.997Z" stroke="#434D48" stroke-width="0.288636" stroke-miterlimit="10"/>
<path d="M90.0963 243.997H81.9972V252.096H90.0963V243.997Z" stroke="#434D48" stroke-width="0.288636" stroke-miterlimit="10"/>
<path d="M90.0963 252.096H81.9972V260.195H90.0963V252.096Z" stroke="#434D48" stroke-width="0.288636" stroke-miterlimit="10"/>
<path d="M98.2012 243.997H90.1021V252.096H98.2012V243.997Z" stroke="#434D48" stroke-width="0.288636" stroke-miterlimit="10"/>
<path d="M191.35 102.248H167.052V126.545H191.35V102.248Z" stroke="#434D48" stroke-width="0.288636" stroke-miterlimit="10"/>
<path d="M191.35 134.65H167.052V158.948H191.35V134.65Z" stroke="#434D48" stroke-width="0.288636" stroke-miterlimit="10"/>
<path d="M191.35 167.047H167.052V187.298H191.35V167.047Z" stroke="#434D48" stroke-width="0.288636" stroke-miterlimit="10"/>
<path d="M167.052 102.248L191.35 126.551" stroke="#434D48" stroke-width="0.288636" stroke-miterlimit="10"/>
<path d="M167.052 126.551L191.35 102.248" stroke="#434D48" stroke-width="0.288636" stroke-miterlimit="10"/>
<path d="M167.052 134.65L191.35 158.948" stroke="#434D48" stroke-width="0.288636" stroke-miterlimit="10"/>
<path d="M167.052 158.948L191.35 134.65" stroke="#434D48" stroke-width="0.288636" stroke-miterlimit="10"/>
<path d="M167.052 167.047L191.35 187.298" stroke="#434D48" stroke-width="0.288636" stroke-miterlimit="10"/>
<path d="M167.052 187.298L191.35 167.047" stroke="#434D48" stroke-width="0.288636" stroke-miterlimit="10"/>
<path d="M142.749 102.248H21.2507V183.245H142.749V102.248Z" stroke="#434D48" stroke-width="0.288636" stroke-miterlimit="10"/>
<path d="M146.802 203.501H114.399V260.201H146.802V203.501Z" stroke="#434D48" stroke-width="1.15455" stroke-miterlimit="10"/>
<path d="M37.4489 163H25.2974V183.251H37.4489V163Z" stroke="#434D48" stroke-width="0.288636" stroke-miterlimit="10"/>
<path d="M57.6997 138.697H45.5481V183.245H57.6997V138.697Z" stroke="#434D48" stroke-width="0.288636" stroke-miterlimit="10"/>
<path d="M77.9504 154.901H65.7988V183.251H77.9504V154.901Z" stroke="#434D48" stroke-width="0.288636" stroke-miterlimit="10"/>
<path d="M98.2011 130.598H86.0496V183.245H98.2011V130.598Z" stroke="#434D48" stroke-width="0.288636" stroke-miterlimit="10"/>
<path d="M118.452 138.697H106.3V183.245H118.452V138.697Z" stroke="#434D48" stroke-width="0.288636" stroke-miterlimit="10"/>
<path d="M138.703 114.399H126.551V183.251H138.703V114.399Z" stroke="#434D48" stroke-width="0.288636" stroke-miterlimit="10"/>
<path d="M25.2974 167.047H37.4489" stroke="#434D48" stroke-width="0.288636" stroke-miterlimit="10"/>
<path d="M45.5481 142.75H57.6997" stroke="#434D48" stroke-width="0.288636" stroke-miterlimit="10"/>
<path d="M65.7988 158.947H77.9504" stroke="#434D48" stroke-width="0.288636" stroke-miterlimit="10"/>
<path d="M65.7988 163H77.9504" stroke="#434D48" stroke-width="0.288636" stroke-miterlimit="10"/>
<path d="M65.7988 167.047H77.9504" stroke="#434D48" stroke-width="0.288636" stroke-miterlimit="10"/>
<path d="M65.7988 171.099H77.9504" stroke="#434D48" stroke-width="0.288636" stroke-miterlimit="10"/>
<path d="M65.7988 175.152H77.9504" stroke="#434D48" stroke-width="0.288636" stroke-miterlimit="10"/>
<path d="M65.7988 179.198H77.9504" stroke="#434D48" stroke-width="0.288636" stroke-miterlimit="10"/>
<path d="M45.5481 146.802H57.6997" stroke="#434D48" stroke-width="0.288636" stroke-miterlimit="10"/>
<path d="M45.5481 150.849H57.6997" stroke="#434D48" stroke-width="0.288636" stroke-miterlimit="10"/>
<path d="M45.5481 154.901H57.6997" stroke="#434D48" stroke-width="0.288636" stroke-miterlimit="10"/>
<path d="M45.5481 158.947H57.6997" stroke="#434D48" stroke-width="0.288636" stroke-miterlimit="10"/>
<path d="M45.5481 163H57.6997" stroke="#434D48" stroke-width="0.288636" stroke-miterlimit="10"/>
<path d="M45.5481 167.047H57.6997" stroke="#434D48" stroke-width="0.288636" stroke-miterlimit="10"/>
<path d="M45.5481 171.099H57.6997" stroke="#434D48" stroke-width="0.288636" stroke-miterlimit="10"/>
<path d="M45.5481 175.152H57.6997" stroke="#434D48" stroke-width="0.288636" stroke-miterlimit="10"/>
<path d="M45.5481 179.198H57.6997" stroke="#434D48" stroke-width="0.288636" stroke-miterlimit="10"/>
<path d="M25.2974 171.099H37.4489" stroke="#434D48" stroke-width="0.288636" stroke-miterlimit="10"/>
<path d="M25.2974 175.152H37.4489" stroke="#434D48" stroke-width="0.288636" stroke-miterlimit="10"/>
<path d="M25.2974 179.198H37.4489" stroke="#434D48" stroke-width="0.288636" stroke-miterlimit="10"/>
<path d="M86.0496 134.65H98.2012" stroke="#434D48" stroke-width="0.288636" stroke-miterlimit="10"/>
<path d="M86.0496 138.697H98.2012" stroke="#434D48" stroke-width="0.288636" stroke-miterlimit="10"/>
<path d="M86.0496 142.75H98.2012" stroke="#434D48" stroke-width="0.288636" stroke-miterlimit="10"/>
<path d="M86.0496 146.802H98.2012" stroke="#434D48" stroke-width="0.288636" stroke-miterlimit="10"/>
<path d="M86.0496 150.849H98.2012" stroke="#434D48" stroke-width="0.288636" stroke-miterlimit="10"/>
<path d="M86.0496 154.901H98.2012" stroke="#434D48" stroke-width="0.288636" stroke-miterlimit="10"/>
<path d="M86.0496 158.947H98.2012" stroke="#434D48" stroke-width="0.288636" stroke-miterlimit="10"/>
<path d="M86.0496 163H98.2012" stroke="#434D48" stroke-width="0.288636" stroke-miterlimit="10"/>
<path d="M86.0496 167.047H98.2012" stroke="#434D48" stroke-width="0.288636" stroke-miterlimit="10"/>
<path d="M86.0496 171.099H98.2012" stroke="#434D48" stroke-width="0.288636" stroke-miterlimit="10"/>
<path d="M86.0496 175.152H98.2012" stroke="#434D48" stroke-width="0.288636" stroke-miterlimit="10"/>
<path d="M86.0496 179.198H98.2012" stroke="#434D48" stroke-width="0.288636" stroke-miterlimit="10"/>
<path d="M126.551 134.65H138.703" stroke="#434D48" stroke-width="0.288636" stroke-miterlimit="10"/>
<path d="M126.551 130.598H138.703" stroke="#434D48" stroke-width="0.288636" stroke-miterlimit="10"/>
<path d="M126.551 126.551H138.703" stroke="#434D48" stroke-width="0.288636" stroke-miterlimit="10"/>
<path d="M126.551 122.499H138.703" stroke="#434D48" stroke-width="0.288636" stroke-miterlimit="10"/>
<path d="M126.551 118.452H138.703" stroke="#434D48" stroke-width="0.288636" stroke-miterlimit="10"/>
<path d="M126.551 138.697H138.703" stroke="#434D48" stroke-width="0.288636" stroke-miterlimit="10"/>
<path d="M126.551 142.75H138.703" stroke="#434D48" stroke-width="0.288636" stroke-miterlimit="10"/>
<path d="M126.551 146.802H138.703" stroke="#434D48" stroke-width="0.288636" stroke-miterlimit="10"/>
<path d="M126.551 150.849H138.703" stroke="#434D48" stroke-width="0.288636" stroke-miterlimit="10"/>
<path d="M126.551 154.901H138.703" stroke="#434D48" stroke-width="0.288636" stroke-miterlimit="10"/>
<path d="M126.551 158.947H138.703" stroke="#434D48" stroke-width="0.288636" stroke-miterlimit="10"/>
<path d="M126.551 163H138.703" stroke="#434D48" stroke-width="0.288636" stroke-miterlimit="10"/>
<path d="M126.551 167.047H138.703" stroke="#434D48" stroke-width="0.288636" stroke-miterlimit="10"/>
<path d="M126.551 171.099H138.703" stroke="#434D48" stroke-width="0.288636" stroke-miterlimit="10"/>
<path d="M126.551 175.152H138.703" stroke="#434D48" stroke-width="0.288636" stroke-miterlimit="10"/>
<path d="M126.551 179.198H138.703" stroke="#434D48" stroke-width="0.288636" stroke-miterlimit="10"/>
<path d="M106.3 142.75H118.452" stroke="#434D48" stroke-width="0.288636" stroke-miterlimit="10"/>
<path d="M106.3 146.802H118.452" stroke="#434D48" stroke-width="0.288636" stroke-miterlimit="10"/>
<path d="M106.3 150.849H118.452" stroke="#434D48" stroke-width="0.288636" stroke-miterlimit="10"/>
<path d="M106.3 154.901H118.452" stroke="#434D48" stroke-width="0.288636" stroke-miterlimit="10"/>
<path d="M106.3 158.947H118.452" stroke="#434D48" stroke-width="0.288636" stroke-miterlimit="10"/>
<path d="M106.3 163H118.452" stroke="#434D48" stroke-width="0.288636" stroke-miterlimit="10"/>
<path d="M106.3 167.047H118.452" stroke="#434D48" stroke-width="0.288636" stroke-miterlimit="10"/>
<path d="M106.3 171.099H118.452" stroke="#434D48" stroke-width="0.288636" stroke-miterlimit="10"/>
<path d="M106.3 175.152H118.452" stroke="#434D48" stroke-width="0.288636" stroke-miterlimit="10"/>
<path d="M106.3 179.198H118.452" stroke="#434D48" stroke-width="0.288636" stroke-miterlimit="10"/>
<path d="M114.399 203.501L146.802 260.201" stroke="#434D48" stroke-width="0.288636" stroke-miterlimit="10"/>
<path d="M146.802 203.501L114.399 260.201" stroke="#434D48" stroke-width="0.288636" stroke-miterlimit="10"/>
</svg>
